# This file uses centimeters as units for non-parametric coordinates.

mtllib bench_1_v1.mtl
g default
v 0.914362 0.000000 -0.064955
v -0.914362 0.000000 -0.064955
v 0.914362 0.400000 -0.064955
v -0.914362 0.400000 -0.064955
v 0.914362 0.400000 0.328106
v -0.914362 0.400000 0.328106
v 0.914362 0.000000 0.328106
v -0.914362 0.000000 0.328106
v 0.914362 0.726716 -0.153421
v -0.914362 0.726716 -0.153421
v 0.914362 0.726716 0.328106
v -0.914362 0.726716 0.328106
v 0.914362 0.362469 0.368760
v -0.914362 0.362469 0.368760
vt 1.000000 0.477290
vt 1.000000 0.992669
vt 0.000000 0.992669
vt 0.000000 0.477290
vt 0.000000 0.476568
vt 1.000000 0.476568
vt 1.000000 0.992669
vt 1.000000 0.477290
vt 0.000000 0.477290
vt 0.000000 0.992669
vt 1.000000 0.484743
vt 0.000000 0.484743
vt 0.000000 0.984899
vt 1.000000 0.984899
vt 0.183721 0.485667
vt 1.000000 0.485667
vt 1.000000 0.985918
vt 0.000000 0.985918
vt 0.183720 0.485667
vt 1.000000 0.485667
vt 1.000000 0.985918
vt -0.000000 0.985918
vt 0.000000 0.477201
vt 1.000000 0.477201
vt 1.000000 0.551982
vt 0.000000 0.551982
vt 1.000000 0.833338
vt 0.000000 0.833338
vn 0.000000 1.000000 -0.000000
vn 0.000000 1.000000 -0.000000
vn -0.000000 0.937526 0.347916
vn -0.000000 0.937526 0.347916
vn -1.000000 0.000000 -0.000000
vn -1.000000 0.000000 -0.000000
vn -1.000000 0.000000 -0.000000
vn -1.000000 0.000000 -0.000000
vn 1.000000 0.000000 0.000000
vn 1.000000 0.000000 0.000000
vn 1.000000 0.000000 0.000000
vn 1.000000 0.000000 0.000000
vn -0.000000 0.261362 0.965241
vn -0.000000 0.261362 0.965241
vn -0.000000 0.261362 0.965241
vn -0.000000 0.261362 0.965241
vn -1.000000 -0.000000 -0.000000
vn -1.000000 -0.000000 -0.000000
vn -1.000000 -0.000000 -0.000000
vn -1.000000 -0.000000 -0.000000
vn -1.000000 0.000000 -0.000000
vn -1.000000 0.000000 -0.000000
vn -1.000000 0.000000 -0.000000
vn -1.000000 0.000000 -0.000000
vn -0.000000 0.734766 0.678321
vn -0.000000 0.734766 0.678321
g bench_1_v1
usemtl lambert433SG
f 3/5/1 4/6/2 6/27/3 5/28/4
f 2/1/5 8/2/6 6/3/7 4/4/8
f 7/7/9 1/8/10 3/9/11 5/10/12
f 4/11/13 3/12/14 9/13/15 10/14/16
f 3/15/17 5/16/18 11/17/19 9/18/20
f 4/19/21 6/20/22 12/21/23 10/22/24
f 5/23/4 6/24/3 14/25/25 13/26/26
